# xmcd
#
# Track frame offsets:
#       150
#       14862
#       35549
#       50449
#       67703
#       82078
#       99092
#       116737
#       135084
#       150127
#       175542
#
# Disc length: 2525 seconds
#
# Revision: 0
# Processed by: cddbd v1.5.2PL0 Copyright (c) Steve Scherf et al.
# Submitted via: WaveLab 4.01
#
DISCID=7809db0b
DTITLE=Francis Serafini - Between The Dark And The Light
DYEAR=2012
DGENRE=Contemporary
TTITLE0=Daddy Was A Rider
TTITLE1=Red Rimmed Eyes
TTITLE2=Don´t Call Me Crazy
TTITLE3=Someone´s Leaving
TTITLE4=Hot Water
TTITLE5=Rita´s Grill
TTITLE6=Ramblin´ Shoes
TTITLE7=Anything You Want
TTITLE8=One Night Shows
TTITLE9=Without You
TTITLE10=Between The Dark And The Light
EXTD=
EXTT0=
EXTT1=
EXTT2=
EXTT3=
EXTT4=
EXTT5=
EXTT6=
EXTT7=
EXTT8=
EXTT9=
EXTT10=
PLAYORDER=
